<svg version="1.1" xmlns="http://www.w3.org/2000/svg" viewBox="0 0 10020 585.9149780273438" width="10020" height="585.9149780273438">
  <!-- svg-source:excalidraw -->
  
  <defs>
    <style>
      @font-face {
        font-family: "Virgil";
        src: url("https://excalidraw.com/Virgil.woff2");
      }
      @font-face {
        font-family: "Cascadia";
        src: url("https://excalidraw.com/Cascadia.woff2");
      }
    </style>
  </defs>
  <rect x="0" y="0" width="10020" height="585.9149780273438" fill="#fff0"></rect><g stroke-linecap="round" transform="translate(10 10) rotate(0 5000 0.5)"><path d="M-0.52 -0.26 C3022.65 -30.2, 6044.59 -29.2, 9999.32 0.22 M0.38 -0.31 C3948.03 -0.44, 7895.41 0.2, 9999.95 0.08 M10000.08 -0.06 C10000.09 0.27, 10000.05 0.48, 10000.09 0.92 M9999.97 0.01 C9999.95 0.33, 9999.98 0.72, 10000 0.99 M10000.22 1.51 C7095.77 35.76, 4193.15 34.95, -0.25 0.75 M10000.01 1.13 C7827.97 2.74, 5656.23 3.35, -0.33 0.84 M-0.04 1.01 C0 0.63, -0.06 0.15, 0.05 -0.03 M-0.04 0.95 C-0.04 0.73, -0.03 0.59, -0.05 -0.02" stroke="transparent" stroke-width="1" fill="none"></path></g><g transform="translate(745.2468872070312 535.383544921875) rotate(0 22.45660400390625 15.8839111328125)" stroke="none"><path fill="#000" d="M 0.49,2.48 Q 0.49,2.48 -1.08,2.76 -2.66,3.05 -3.71,3.24 -4.77,3.42 -5.97,3.76 -7.17,4.09 -8.54,4.30 -9.91,4.51 -11.83,5.31 -13.74,6.11 -15.48,6.77 -17.22,7.44 -18.20,7.90 -19.18,8.37 -20.67,9.21 -22.15,10.05 -23.78,11.24 -25.41,12.44 -26.01,13.36 -26.60,14.29 -24.83,15.22 -23.07,16.14 -22.02,16.69 -20.97,17.23 -19.74,17.77 -18.51,18.31 -16.19,18.97 -13.87,19.62 -12.47,19.82 -11.07,20.02 -8.97,20.58 -6.88,21.14 -5.21,21.35 -3.53,21.56 -1.14,22.08 1.25,22.61 3.11,22.81 4.96,23.02 7.30,23.17 9.65,23.32 12.02,23.73 14.40,24.15 16.56,24.33 18.71,24.52 20.89,24.61 23.07,24.70 25.35,25.08 27.64,25.45 29.77,25.61 31.90,25.76 34.16,26.16 36.42,26.56 38.55,26.72 40.67,26.88 42.93,27.28 45.19,27.68 47.01,27.78 48.83,27.89 50.68,28.24 52.53,28.58 53.83,28.64 55.14,28.70 56.79,29.05 58.44,29.40 59.62,29.47 60.80,29.54 62.18,29.90 63.55,30.27 65.05,30.45 66.56,30.63 67.46,31.30 68.37,31.96 68.73,33.07 69.08,34.19 68.67,35.51 68.26,36.83 67.38,37.54 66.50,38.26 64.26,39.23 62.03,40.19 59.77,40.84 57.51,41.48 55.76,41.67 54.01,41.85 52.01,41.82 50.00,41.79 48.43,42.05 46.85,42.31 44.37,42.34 41.89,42.38 39.29,42.34 36.69,42.30 34.01,42.26 31.33,42.21 28.62,42.16 25.91,42.12 23.18,42.08 20.46,42.05 17.41,42.02 14.36,41.99 11.49,41.97 8.62,41.95 5.13,41.62 1.64,41.29 -1.03,41.14 -3.72,41.00 -7.12,40.62 -10.52,40.23 -13.48,40.07 -16.44,39.91 -18.74,39.52 -21.04,39.12 -23.57,38.64 -26.10,38.16 -28.36,37.96 -30.62,37.76 -33.23,37.36 -35.84,36.95 -37.66,36.51 -39.47,36.08 -40.76,35.99 -42.06,35.91 -43.43,35.56 -44.81,35.21 -45.86,34.72 -46.90,34.23 -47.88,33.79 -48.86,33.35 -49.79,32.76 -50.72,32.16 -51.38,31.31 -52.04,30.46 -52.47,28.50 -52.90,26.54 -52.15,24.44 -51.41,22.34 -50.78,21.14 -50.15,19.94 -49.22,18.54 -48.28,17.13 -47.17,15.81 -46.06,14.48 -44.14,12.99 -42.22,11.50 -40.45,10.28 -38.67,9.06 -36.65,7.65 -34.64,6.23 -32.72,5.25 -30.81,4.26 -28.76,3.27 -26.71,2.28 -23.53,1.21 -20.36,0.14 -17.49,-0.90 -14.62,-1.95 -11.49,-3.03 -8.35,-4.11 -5.07,-4.89 -1.79,-5.68 1.49,-6.32 4.78,-6.96 8.06,-7.54 11.35,-8.13 14.70,-8.38 18.05,-8.63 21.62,-9.05 25.19,-9.46 28.34,-9.64 31.48,-9.82 34.39,-9.90 37.31,-9.97 40.44,-10.00 43.57,-10.03 46.55,-9.73 49.52,-9.42 51.76,-8.97 54.00,-8.51 57.11,-8.01 60.21,-7.52 63.19,-6.65 66.18,-5.79 68.37,-5.11 70.56,-4.44 73.09,-3.51 75.62,-2.58 77.98,-1.55 80.34,-0.51 82.00,0.17 83.66,0.86 85.37,1.80 87.08,2.75 88.99,3.80 90.91,4.84 92.18,5.55 93.45,6.26 94.49,7.30 95.54,8.35 96.33,9.44 97.13,10.54 97.82,12.64 98.51,14.74 98.65,16.33 98.80,17.92 98.03,19.44 97.25,20.97 95.66,22.80 94.06,24.63 88.46,26.73 82.86,28.84 80.03,29.86 77.21,30.88 74.55,31.32 71.90,31.77 69.27,32.22 66.64,32.67 63.85,32.85 61.06,33.04 58.31,33.09 55.55,33.15 50.01,33.47 44.46,33.80 41.46,33.93 38.45,34.06 35.58,34.11 32.72,34.16 28.98,34.17 25.24,34.19 21.13,34.19 17.02,34.20 13.07,34.20 9.12,34.20 5.18,33.88 1.25,33.56 -2.26,33.42 -5.77,33.29 -9.83,32.91 -13.89,32.54 -17.45,32.38 -21.02,32.22 -24.43,32.15 -27.83,32.09 -30.61,31.74 -33.39,31.39 -36.39,31.24 -39.38,31.10 -41.40,30.75 -43.43,30.40 -44.83,30.35 -46.23,30.30 -47.45,30.33 -48.68,30.37 -49.51,30.12 -50.34,29.87 -50.58,29.83 -50.81,29.79 -51.03,29.69 -51.25,29.59 -51.44,29.45 -51.63,29.30 -51.78,29.11 -51.93,28.93 -52.03,28.71 -52.12,28.49 -52.17,28.26 -52.21,28.02 -52.20,27.78 -52.19,27.54 -52.12,27.31 -52.05,27.09 -51.93,26.88 -51.80,26.67 -51.63,26.50 -51.47,26.33 -51.26,26.21 -51.06,26.08 -50.83,26.01 -50.60,25.94 -50.36,25.92 -50.12,25.91 -49.28,24.45 -48.44,23.00 -47.61,22.21 -46.79,21.42 -44.30,19.71 -41.82,17.99 -40.20,17.05 -38.58,16.11 -36.81,15.32 -35.05,14.53 -32.71,13.67 -30.37,12.80 -27.44,11.82 -24.52,10.85 -21.65,10.13 -18.78,9.41 -15.98,8.80 -13.18,8.20 -10.09,7.64 -6.99,7.08 -3.85,6.24 -0.71,5.39 3.22,4.70 7.17,4.02 10.45,3.73 13.73,3.44 17.28,3.01 20.84,2.58 22.34,2.30 23.85,2.01 24.10,2.02 24.35,2.03 24.59,2.12 24.82,2.21 25.02,2.37 25.21,2.53 25.35,2.75 25.48,2.96 25.54,3.21 25.59,3.45 25.57,3.70 25.55,3.95 25.44,4.18 25.34,4.41 25.17,4.60 25.00,4.78 24.78,4.91 24.56,5.03 24.31,5.07 24.06,5.12 23.81,5.08 23.56,5.04 23.34,4.93 23.11,4.81 22.94,4.63 22.76,4.45 22.65,4.22 22.55,3.99 22.51,3.74 22.48,3.49 22.53,3.25 22.59,3.00 22.71,2.78 22.84,2.57 23.03,2.40 23.22,2.23 23.45,2.14 23.68,2.04 23.94,2.02 24.19,2.01 24.43,2.07 24.67,2.13 24.89,2.27 25.10,2.41 25.25,2.61 25.41,2.81 25.49,3.05 25.57,3.28 25.58,3.54 25.58,3.79 25.50,4.03 25.43,4.27 25.28,4.47 25.13,4.67 24.92,4.82 24.71,4.96 24.47,5.03 24.23,5.10 24.23,5.10 24.23,5.10 22.70,5.19 21.17,5.28 17.57,5.73 13.98,6.18 10.82,6.48 7.66,6.77 3.85,7.46 0.04,8.15 -3.19,9.06 -6.44,9.98 -9.46,10.59 -12.49,11.19 -15.21,11.86 -17.93,12.53 -20.64,13.32 -23.34,14.11 -26.13,15.19 -28.91,16.28 -31.10,17.31 -33.30,18.34 -34.79,19.05 -36.28,19.76 -37.89,20.86 -39.50,21.96 -41.61,23.44 -43.72,24.92 -44.85,25.84 -45.97,26.76 -46.99,27.36 -48.01,27.96 -49.18,28.92 -50.34,29.87 -50.58,29.83 -50.81,29.79 -51.03,29.69 -51.25,29.59 -51.44,29.45 -51.63,29.30 -51.78,29.11 -51.93,28.93 -52.03,28.71 -52.12,28.49 -52.17,28.26 -52.21,28.02 -52.20,27.78 -52.19,27.54 -52.12,27.31 -52.05,27.09 -51.93,26.88 -51.80,26.67 -51.63,26.50 -51.47,26.33 -51.26,26.21 -51.06,26.08 -50.83,26.01 -50.60,25.94 -50.36,25.92 -50.12,25.91 -49.27,26.35 -48.42,26.79 -47.15,26.96 -45.88,27.12 -44.39,27.40 -42.89,27.67 -41.07,28.07 -39.25,28.47 -36.16,28.62 -33.06,28.77 -30.42,29.11 -27.78,29.45 -24.34,29.51 -20.91,29.58 -17.27,29.74 -13.64,29.90 -9.65,30.26 -5.67,30.63 -2.10,30.76 1.46,30.89 5.29,31.20 9.12,31.51 13.07,31.50 17.01,31.48 21.11,31.47 25.22,31.45 28.94,31.41 32.65,31.37 35.48,31.29 38.31,31.21 41.29,31.04 44.28,30.87 49.86,30.48 55.44,30.10 58.12,29.96 60.80,29.83 63.38,29.57 65.97,29.31 68.57,28.71 71.17,28.12 73.41,27.58 75.65,27.05 78.41,25.77 81.18,24.49 85.77,22.66 90.36,20.82 91.14,19.99 91.91,19.17 92.92,18.32 93.93,17.48 93.93,16.39 93.93,15.31 93.82,14.00 93.72,12.68 92.65,10.86 91.58,9.03 90.55,8.23 89.53,7.43 87.54,6.41 85.55,5.39 83.99,4.44 82.44,3.50 80.86,2.69 79.29,1.88 77.00,0.88 74.72,-0.12 72.25,-1.02 69.78,-1.93 67.61,-2.60 65.44,-3.27 62.62,-4.09 59.79,-4.92 56.63,-5.42 53.48,-5.93 51.36,-6.36 49.25,-6.80 46.42,-7.09 43.60,-7.39 40.49,-7.36 37.38,-7.32 34.51,-7.24 31.63,-7.17 28.57,-6.99 25.50,-6.81 21.88,-6.38 18.25,-5.95 15.04,-5.71 11.83,-5.46 8.57,-4.86 5.31,-4.27 2.09,-3.62 -1.13,-2.97 -4.27,-2.19 -7.41,-1.42 -10.50,-0.32 -13.59,0.78 -16.47,1.89 -19.36,3.01 -22.31,4.07 -25.25,5.13 -27.23,6.21 -29.21,7.28 -30.86,8.18 -32.51,9.07 -34.42,10.62 -36.34,12.16 -37.88,13.44 -39.43,14.72 -40.88,16.15 -42.33,17.57 -43.23,18.68 -44.12,19.78 -45.45,21.93 -46.77,24.08 -47.25,25.84 -47.74,27.60 -47.28,28.56 -46.82,29.52 -45.22,30.61 -43.62,31.70 -42.59,32.16 -41.55,32.61 -40.12,32.94 -38.68,33.27 -37.06,33.80 -35.43,34.34 -32.91,34.73 -30.39,35.12 -28.00,35.33 -25.60,35.54 -23.09,36.02 -20.59,36.49 -18.44,36.86 -16.30,37.23 -13.26,37.38 -10.22,37.54 -6.90,37.90 -3.58,38.26 -0.84,38.38 1.90,38.51 5.26,38.80 8.62,39.10 11.49,39.08 14.36,39.05 17.41,39.02 20.45,38.99 23.18,38.95 25.90,38.90 28.60,38.83 31.30,38.77 33.95,38.67 36.60,38.56 39.12,38.40 41.63,38.24 43.79,37.98 45.95,37.72 47.88,37.29 49.81,36.86 51.60,36.68 53.40,36.51 54.65,36.35 55.90,36.19 57.99,35.61 60.08,35.04 62.08,34.94 64.07,34.84 62.18,34.17 60.29,33.50 58.91,33.25 57.54,32.99 56.13,32.57 54.72,32.16 53.29,31.89 51.86,31.62 50.22,31.19 48.58,30.77 46.65,30.55 44.72,30.33 42.60,29.97 40.47,29.60 38.22,29.44 35.96,29.28 33.83,28.93 31.71,28.57 29.46,28.44 27.20,28.30 25.09,27.99 22.98,27.68 20.74,27.65 18.51,27.62 16.21,27.51 13.91,27.41 11.72,27.13 9.54,26.86 7.09,26.87 4.63,26.88 2.61,26.76 0.59,26.63 -1.68,26.39 -3.96,26.14 -5.88,26.02 -7.80,25.90 -9.71,25.68 -11.62,25.46 -14.65,24.97 -17.69,24.48 -19.17,24.20 -20.65,23.92 -22.20,23.38 -23.75,22.85 -24.80,22.36 -25.85,21.86 -27.52,21.08 -29.19,20.30 -30.61,19.39 -32.02,18.49 -32.55,17.50 -33.08,16.51 -33.13,14.94 -33.19,13.37 -32.66,12.38 -32.13,11.39 -31.16,10.41 -30.20,9.43 -28.48,7.98 -26.77,6.52 -25.12,5.53 -23.47,4.54 -22.51,3.94 -21.55,3.33 -20.45,2.83 -19.35,2.32 -17.58,1.78 -15.81,1.23 -14.60,0.73 -13.38,0.23 -10.94,-0.29 -8.51,-0.81 -6.07,-1.30 -3.63,-1.79 -2.06,-2.13 -0.49,-2.48 -0.19,-2.51 0.11,-2.53 0.41,-2.48 0.71,-2.43 0.99,-2.31 1.27,-2.19 1.52,-2.00 1.76,-1.82 1.95,-1.58 2.15,-1.34 2.28,-1.07 2.41,-0.79 2.46,-0.49 2.52,-0.19 2.51,0.11 2.50,0.41 2.41,0.71 2.33,1.00 2.17,1.26 2.02,1.53 1.80,1.75 1.59,1.97 1.33,2.13 1.07,2.29 0.78,2.39 0.49,2.48 0.49,2.48 L 0.49,2.48 Z"></path></g><g transform="translate(885.4638061523438 552.91064453125) rotate(0 0.00004999999998744897 0.00005000000000165983)" stroke="none"><path fill="#000" d="M 1.57,-1.57 Q 1.57,-1.57 1.77,-1.27 1.98,-0.98 2.09,-0.64 2.20,-0.29 2.19,0.05 2.18,0.41 2.05,0.75 1.93,1.09 1.70,1.37 1.48,1.65 1.18,1.84 0.87,2.04 0.52,2.12 0.18,2.21 -0.17,2.18 -0.53,2.15 -0.86,2.01 -1.19,1.87 -1.46,1.63 -1.73,1.39 -1.90,1.07 -2.08,0.76 -2.15,0.41 -2.21,0.05 -2.17,-0.29 -2.12,-0.65 -1.96,-0.97 -1.80,-1.29 -1.54,-1.54 -1.29,-1.80 -0.97,-1.96 -0.65,-2.12 -0.29,-2.17 0.06,-2.21 0.41,-2.15 0.76,-2.08 1.07,-1.90 1.39,-1.73 1.63,-1.46 1.87,-1.19 2.01,-0.86 2.15,-0.53 2.18,-0.17 2.21,0.18 2.12,0.52 2.03,0.87 1.84,1.18 1.65,1.48 1.37,1.70 1.09,1.93 0.75,2.05 0.41,2.18 0.05,2.19 -0.30,2.20 -0.64,2.09 -0.98,1.98 -1.27,1.77 -1.57,1.56 -1.57,1.57 -1.57,1.57 -1.73,1.35 -1.90,1.14 -2.01,0.90 -2.12,0.66 -2.16,0.39 -2.21,0.13 -2.20,-0.13 -2.18,-0.40 -2.10,-0.65 -2.02,-0.91 -1.88,-1.14 -1.74,-1.36 -1.55,-1.55 -1.36,-1.74 -1.14,-1.88 -0.91,-2.02 -0.65,-2.10 -0.40,-2.18 -0.13,-2.20 0.13,-2.21 0.39,-2.16 0.66,-2.12 0.90,-2.01 1.14,-1.90 1.35,-1.73 1.57,-1.57 1.57,-1.57 L 1.57,-1.57 Z"></path></g></svg>